<svg width="17" height="16" viewBox="0 0 17 16" fill="none" xmlns="http://www.w3.org/2000/svg">
<path d="M6.97336 10.4749C6.71336 10.7349 6.28671 10.7349 6.02671 10.4749C5.76671 10.2149 5.76671 9.78833 6.02671 9.52833L7.55336 8.00164L6.02671 6.47495C5.76671 6.21495 5.76671 5.78833 6.02671 5.52833C6.28671 5.26833 6.71336 5.26833 6.97336 5.52833L8.50003 7.05503L10.0267 5.52833C10.2867 5.26833 10.7134 5.26833 10.9734 5.52833C11.2334 5.78833 11.2334 6.21495 10.9734 6.47495L9.44671 8.00164L10.9734 9.52833C11.2334 9.78833 11.2334 10.2149 10.9734 10.4749C10.7134 10.7349 10.2867 10.7349 10.0267 10.4749L8.50003 8.94826L6.97336 10.4749Z" />
<path fill-rule="evenodd" clip-rule="evenodd" d="M15.8333 8.00163C15.8333 12.055 12.5533 15.335 8.5 15.335C4.44667 15.335 1.16667 12.055 1.16667 8.00163C1.16667 3.94829 4.44667 0.668294 8.5 0.668294C12.5533 0.668294 15.8333 3.94829 15.8333 8.00163ZM14.5 8.00163C14.5 4.68829 11.8133 2.00163 8.5 2.00163C5.18667 2.00163 2.5 4.68829 2.5 8.00163C2.5 11.315 5.18667 14.0016 8.5 14.0016C11.8133 14.0016 14.5 11.315 14.5 8.00163Z" />
</svg>
